<?xml version="1.0" standalone="no"?><!DOCTYPE svg PUBLIC "-//W3C//DTD SVG 1.1//EN" "http://www.w3.org/Graphics/SVG/1.1/DTD/svg11.dtd"><svg t="1558601099584" class="icon" style="" viewBox="0 0 1024 1024" version="1.1" xmlns="http://www.w3.org/2000/svg" p-id="1989" xmlns:xlink="http://www.w3.org/1999/xlink" width="200" height="200"><defs><style type="text/css"></style></defs><path d="M777.142857 746.857143l20 90.857143q1.714286 6.857143-1.714286 12.857143t-9.714285 8.285714l-2.857143 0.571428q-2.285714 1.142857-6 2t-9.142857 2.571429-12.285715 3.142857-14.571428 2.857143-17.142857 2.857143-19.142857 2.571428-20.857143 1.714286-22 0.571429q-133.714286 0-233.714286-74.571429T292 602.285714h-54.285714q-7.428571 0-12.857143-5.428571T219.428571 584V519.428571q0-7.428571 5.428572-12.857142T237.714286 501.142857h37.714285q-1.142857-32.571429 0.571429-60h-38.285714q-8 0-13.142857-5.142857t-5.142858-13.142857V357.714286q0-8 5.142858-13.142857t13.142857-5.142858h56q38.285714-120 139.142857-193.142857T661.714286 73.142857q58.285714 0 110.857143 13.142857 6.285714 1.714286 11.428571 8.571429 3.428571 6.285714 1.714286 13.714286l-24.571429 90.857142q-1.714286 7.428571-8 11.142858t-13.714286 1.428571l-2.285714-0.571429q-2.285714-0.571429-6.571428-1.428571L720.571429 208l-12.857143-2-14.857143-1.714286-16.571429-1.428571-16.857143-0.571429q-72 0-129.142857 36.571429T444.571429 339.428571h267.428571q9.142857 0 14.285714 6.857143 5.714286 6.857143 4 14.857143l-13.714285 65.142857q-2.857143 14.857143-18.285715 14.857143H419.428571q-1.714286 21.142857 0 60h262.285715q8.571429 0 14.285714 6.857143 5.142857 6.857143 3.428571 15.428571l-13.714285 64q-1.142857 6.285714-6.285715 10.571429t-11.428571 4.285714H446.857143q27.428571 66.857143 85.428571 106T662.857143 747.428571q10.285714 0 20.571428-0.857142t19.142858-2 16.857142-2.571429 14-2.857143 10.571429-2.571428l6.857143-1.714286 2.857143-1.142857q7.428571-2.857143 14.857143 1.142857 6.857143 4 8.571428 12z" p-id="1990"></path></svg>